<svg id="Capa_1" data-name="Capa 1" xmlns="http://www.w3.org/2000/svg" xmlns:xlink="http://www.w3.org/1999/xlink" viewBox="0 0 275.41 157.26">
  <defs>
    <style>
      .cls-1, .cls-4, .cls-5 {
        fill: none;
      }

      .cls-2 {
        clip-path: url(#clip-path);
      }

      .cls-3 {
        font-size: 35.79px;
        fill: #945b4e;
        font-family: CenturySchoolbook-Bold, Century Schoolbook;
        font-weight: 700;
        letter-spacing: -0.03em;
      }

      .cls-4, .cls-5 {
        stroke: #945b4e;
        stroke-miterlimit: 10;
      }

      .cls-4 {
        stroke-width: 3px;
      }

      .cls-5 {
        stroke-width: 2px;
      }
    </style>
    <clipPath id="clip-path" transform="translate(1.41 -0.87)">
      <rect class="cls-1" width="274" height="83"/>
    </clipPath>
  </defs>
  <title>ElMaderero-Logo</title>
  <g class="cls-2">
    <text class="cls-3" transform="translate(0 76.36) scale(0.97 0.9)">elmaderero</text>
    <line class="cls-4" x1="1.41" y1="80.63" x2="275.41" y2="80.63"/>
    <polygon class="cls-5" points="262.41 78.63 259.38 80.91 262.27 83.37 259.1 85.46 261.83 88.09 258.54 89.99 261.11 92.78 257.71 94.47 260.1 97.42 256.6 98.89 258.8 101.98 255.22 103.23 257.23 106.46 253.57 107.48 255.38 110.82 251.66 111.62 253.26 115.07 249.5 115.64 250.88 119.17 247.1 119.51 248.26 123.13 244.47 123.23 245.4 126.91 241.6 126.78 242.31 130.51 238.53 130.15 239.01 133.91 235.26 133.32 235.5 137.11 231.8 136.29 231.81 140.08 228.16 139.03 227.94 142.82 224.37 141.56 223.91 145.32 220.42 143.84 219.74 147.57 216.34 145.87 215.43 149.56 212.15 147.65 211.01 151.27 207.85 149.16 206.49 152.71 203.47 150.41 201.89 153.86 199.01 151.38 197.22 154.73 194.51 152.07 192.52 155.3 189.97 152.49 187.78 155.59 185.41 152.63 183.04 155.59 180.85 152.49 178.3 155.3 176.31 152.07 173.59 154.73 171.8 151.38 168.93 153.86 167.35 150.41 164.33 152.71 162.96 149.16 159.81 151.27 158.67 147.65 155.38 149.55 154.47 145.87 151.07 147.57 150.39 143.83 146.9 145.32 146.45 141.55 142.87 142.82 142.65 139.03 139 140.07 139.01 136.28 135.31 137.1 135.55 133.31 131.8 133.9 132.28 130.14 128.5 130.5 129.21 126.77 125.42 126.9 126.35 123.22 122.56 123.12 123.71 119.5 119.93 119.17 121.31 115.63 117.56 115.06 119.15 111.62 115.44 110.82 117.24 107.48 113.59 106.45 115.6 103.23 112.01 101.98 114.22 98.89 110.72 97.41 113.11 94.47 109.71 92.78 112.28 89.98 108.99 88.09 111.72 85.46 108.55 83.37 111.44 80.91 108.41 78.63 111.44 76.35 108.55 73.89 111.72 71.8 108.99 69.16 112.28 67.27 109.71 64.47 113.11 62.79 110.72 59.84 114.22 58.37 112.02 55.27 115.6 54.02 113.59 50.8 117.25 49.77 115.44 46.43 119.16 45.63 117.56 42.19 121.31 41.62 119.94 38.08 123.72 37.75 122.56 34.13 126.36 34.03 125.42 30.35 129.22 30.48 128.51 26.75 132.29 27.11 131.81 23.34 135.56 23.94 135.31 20.15 139.02 20.97 139.01 17.18 142.66 18.22 142.88 14.43 146.45 15.7 146.91 11.93 150.4 13.42 151.08 9.68 154.48 11.38 155.39 7.7 158.67 9.61 159.81 5.99 162.97 8.09 164.33 4.55 167.35 6.85 168.93 3.4 171.81 5.88 173.6 2.53 176.31 5.18 178.3 1.95 180.85 4.77 183.04 1.66 185.41 4.63 187.78 1.66 189.97 4.77 192.52 1.95 194.51 5.18 197.23 2.53 199.02 5.88 201.89 3.4 203.47 6.85 206.49 4.55 207.86 8.09 211.01 5.99 212.15 9.61 215.44 7.7 216.35 11.39 219.75 9.69 220.43 13.42 223.92 11.94 224.37 15.71 227.95 14.44 228.17 18.23 231.82 17.18 231.81 20.98 235.51 20.16 235.27 23.94 239.02 23.35 238.54 27.12 242.32 26.76 241.61 30.49 245.4 30.36 244.47 34.03 248.26 34.14 247.11 37.75 250.89 38.09 249.51 41.63 253.26 42.2 251.67 45.64 255.38 46.44 253.58 49.78 257.23 50.81 255.22 54.03 258.81 55.28 256.6 58.37 260.1 59.84 257.71 62.79 261.11 64.48 258.54 67.27 261.83 69.16 259.1 71.8 262.27 73.89 259.38 76.35 262.41 78.63"/>
  </g>
</svg>
