<svg id="Capa_1" data-name="Capa 1" xmlns="http://www.w3.org/2000/svg" xmlns:xlink="http://www.w3.org/1999/xlink" viewBox="0 0 304 113"><defs><style>.cls-1,.cls-7,.cls-8{fill:none;}.cls-2{opacity:0.7;}.cls-3{fill:#fff;}.cls-4,.cls-6{fill:#945b4e;}.cls-5{clip-path:url(#clip-path);}.cls-6{font-size:35.79px;font-family:CenturySchoolbook-Bold, Century Schoolbook;font-weight:700;letter-spacing:-0.03em;}.cls-7,.cls-8{stroke:#945b4e;stroke-miterlimit:10;}.cls-7{stroke-width:3px;}.cls-8{stroke-width:2px;}</style><clipPath id="clip-path"><rect class="cls-1" x="15" y="15" width="274" height="83"/></clipPath></defs><title>ElMaderero-Logo2</title><g class="cls-2"><rect class="cls-3" x="1" y="1" width="302" height="111" rx="14" ry="14"/><path class="cls-4" d="M289,2a13,13,0,0,1,13,13V98a13,13,0,0,1-13,13H15A13,13,0,0,1,2,98V15A13,13,0,0,1,15,2H289m0-2H15A15,15,0,0,0,0,15V98a15,15,0,0,0,15,15H289a15,15,0,0,0,15-15V15A15,15,0,0,0,289,0Z"/></g><g class="cls-5"><text class="cls-6" transform="translate(13.59 92.23) scale(0.97 0.9)">elmaderero</text><line class="cls-7" x1="15" y1="96.5" x2="289" y2="96.5"/><polygon class="cls-8" points="276 94.5 272.96 96.78 275.86 99.24 272.69 101.33 275.42 103.97 272.13 105.86 274.7 108.66 271.3 110.34 273.69 113.29 270.19 114.76 272.39 117.86 268.81 119.11 270.82 122.33 267.16 123.36 268.96 126.7 265.25 127.5 266.85 130.94 263.1 131.51 264.47 135.05 260.69 135.38 261.85 139 258.05 139.1 258.99 142.78 255.19 142.65 255.9 146.38 252.12 146.02 252.6 149.78 248.85 149.19 249.09 152.98 245.39 152.16 245.4 155.95 241.75 154.91 241.53 158.7 237.96 157.43 237.5 161.2 234.01 159.71 233.33 163.44 229.93 161.75 229.02 165.43 225.74 163.52 224.6 167.14 221.44 165.04 220.08 168.58 217.06 166.28 215.48 169.73 212.6 167.25 210.81 170.6 208.1 167.95 206.1 171.18 203.56 168.36 201.37 171.47 199 168.5 196.63 171.47 194.44 168.36 191.89 171.18 189.9 167.95 187.18 170.6 185.39 167.25 182.52 169.73 180.94 166.28 177.92 168.58 176.55 165.03 173.4 167.14 172.25 163.52 168.97 165.43 168.06 161.74 164.66 163.44 163.98 159.71 160.49 161.19 160.04 157.42 156.46 158.69 156.24 154.9 152.59 155.95 152.6 152.15 148.9 152.97 149.14 149.19 145.39 149.78 145.87 146.01 142.09 146.37 142.8 142.64 139.01 142.77 139.94 139.09 136.15 138.99 137.3 135.38 133.52 135.04 134.9 131.5 131.15 130.93 132.74 127.49 129.03 126.69 130.83 123.35 127.18 122.32 129.19 119.1 125.6 117.85 127.81 114.76 124.31 113.29 126.7 110.34 123.3 108.65 125.87 105.86 122.58 103.97 125.31 101.33 122.14 99.24 125.03 96.78 122 94.5 125.03 92.22 122.14 89.76 125.31 87.67 122.58 85.03 125.87 83.14 123.3 80.34 126.7 78.66 124.31 75.71 127.81 74.24 125.61 71.15 129.19 69.89 127.18 66.67 130.84 65.64 129.03 62.3 132.75 61.51 131.15 58.06 134.91 57.49 133.53 53.95 137.31 53.62 136.15 50 139.94 49.9 139.01 46.22 142.81 46.35 142.1 42.62 145.88 42.98 145.4 39.22 149.15 39.81 148.91 36.02 152.61 36.84 152.6 33.05 156.25 34.09 156.47 30.3 160.04 31.57 160.5 27.8 163.99 29.29 164.67 25.56 168.07 27.26 168.98 23.57 172.26 25.48 173.4 21.86 176.56 23.96 177.92 20.42 180.94 22.72 182.52 19.27 185.4 21.75 187.19 18.4 189.9 21.05 191.89 17.82 194.44 20.64 196.63 17.54 199 20.5 201.37 17.54 203.56 20.64 206.11 17.82 208.1 21.05 210.82 18.4 212.61 21.75 215.48 19.27 217.06 22.72 220.08 20.42 221.44 23.96 224.6 21.86 225.74 25.48 229.03 23.57 229.94 27.26 233.34 25.56 234.02 29.29 237.51 27.81 237.96 31.58 241.54 30.31 241.76 34.1 245.41 33.05 245.4 36.85 249.1 36.03 248.86 39.82 252.61 39.23 252.13 42.99 255.91 42.63 255.2 46.36 258.99 46.23 258.06 49.91 261.85 50.01 260.7 53.63 264.48 53.96 263.1 57.5 266.85 58.07 265.26 61.51 268.97 62.31 267.17 65.65 270.82 66.68 268.81 69.9 272.4 71.15 270.19 74.24 273.69 75.72 271.3 78.66 274.7 80.35 272.13 83.14 275.42 85.04 272.69 87.67 275.86 89.76 272.96 92.22 276 94.5"/></g></svg>