<svg id="Capa_1" data-name="Capa 1" xmlns="http://www.w3.org/2000/svg" xmlns:xlink="http://www.w3.org/1999/xlink" viewBox="0 0 294.41 156.42"><defs><style>.cls-1,.cls-4,.cls-6{fill:none;}.cls-2{clip-path:url(#clip-path);}.cls-3{font-size:37.6px;fill:#945b4e;font-family:CenturySchoolbook-Bold, Century Schoolbook;font-weight:700;letter-spacing:-0.03em;}.cls-4,.cls-6{stroke:#945b4e;stroke-miterlimit:10;}.cls-4{stroke-width:2px;}.cls-5{clip-path:url(#clip-path-2);}.cls-6{stroke-width:1.5px;}</style><clipPath id="clip-path" transform="translate(0.41 -0.29)"><rect class="cls-1" width="294" height="91"/></clipPath><clipPath id="clip-path-2" transform="translate(0.41 -0.29)"><rect class="cls-1" x="138.82" y="-0.4" width="158.96" height="102.96" transform="translate(39.86 -84.66) rotate(24.09)"/></clipPath></defs><title>Logo</title><g class="cls-2"><text class="cls-3" transform="translate(0 83.94) scale(0.97 0.9)">el maderero</text><line class="cls-4" x1="0.41" y1="89.71" x2="294.41" y2="89.71"/><g class="cls-5"><polygon class="cls-6" points="283.41 78.21 280.38 80.49 283.27 82.95 280.1 85.05 282.83 87.68 279.54 89.57 282.11 92.37 278.71 94.05 281.1 97 277.6 98.47 279.8 101.57 276.22 102.82 278.23 106.04 274.57 107.07 276.38 110.41 272.67 111.21 274.26 114.65 270.5 115.22 271.88 118.76 268.1 119.09 269.26 122.71 265.46 122.81 266.4 126.49 262.6 126.36 263.31 130.09 259.53 129.73 260.01 133.5 256.26 132.9 256.5 136.69 252.8 135.87 252.81 139.66 249.16 138.62 248.94 142.41 245.37 141.14 244.91 144.91 241.42 143.42 240.74 147.16 237.34 145.46 236.43 149.14 233.15 147.23 232.01 150.85 228.85 148.75 227.49 152.29 224.47 149.99 222.89 153.44 220.01 150.97 218.22 154.31 215.51 151.66 213.52 154.89 210.97 152.07 208.78 155.18 206.41 152.21 204.04 155.18 201.85 152.07 199.3 154.89 197.31 151.66 194.59 154.31 192.8 150.96 189.93 153.44 188.35 149.99 185.33 152.29 183.96 148.75 180.81 150.85 179.67 147.23 176.38 149.14 175.47 145.45 172.07 147.15 171.39 143.42 167.9 144.9 167.45 141.13 163.87 142.4 163.65 138.61 160 139.66 160.01 135.86 156.31 136.68 156.55 132.9 152.8 133.49 153.28 129.72 149.5 130.08 150.21 126.35 146.42 126.48 147.35 122.81 143.56 122.7 144.71 119.09 140.93 118.75 142.31 115.21 138.56 114.64 140.15 111.2 136.44 110.4 138.24 107.06 134.59 106.03 136.6 102.81 133.01 101.56 135.22 98.47 131.72 97 134.11 94.05 130.71 92.36 133.28 89.57 129.99 87.68 132.72 85.04 129.55 82.95 132.44 80.49 129.41 78.21 132.44 75.93 129.55 73.47 132.72 71.38 129.99 68.75 133.28 66.85 130.71 64.06 134.11 62.37 131.72 59.42 135.22 57.95 133.02 54.86 136.6 53.6 134.59 50.38 138.25 49.36 136.44 46.02 140.16 45.22 138.56 41.77 142.31 41.2 140.94 37.67 144.72 37.33 143.56 33.72 147.35 33.61 146.42 29.93 150.22 30.06 149.51 26.33 153.29 26.7 152.81 22.93 156.56 23.52 156.31 19.73 160.02 20.55 160.01 16.76 163.66 17.8 163.88 14.02 167.45 15.28 167.91 11.52 171.4 13 172.08 9.27 175.48 10.97 176.39 7.28 179.67 9.19 180.81 5.57 183.97 7.67 185.33 4.13 188.35 6.43 189.93 2.98 192.81 5.46 194.6 2.11 197.31 4.77 199.3 1.54 201.85 4.35 204.04 1.25 206.41 4.21 208.78 1.25 210.97 4.35 213.52 1.54 215.51 4.77 218.23 2.11 220.02 5.46 222.89 2.98 224.47 6.43 227.49 4.13 228.86 7.68 232.01 5.57 233.15 9.19 236.44 7.29 237.35 10.97 240.75 9.27 241.43 13.01 244.92 11.52 245.37 15.29 248.95 14.02 249.17 17.81 252.82 16.77 252.81 20.56 256.51 19.74 256.27 23.53 260.02 22.94 259.54 26.7 263.32 26.34 262.61 30.07 266.4 29.94 265.47 33.62 269.26 33.72 268.11 37.34 271.89 37.67 270.51 41.21 274.26 41.78 272.67 45.22 276.38 46.02 274.58 49.36 278.23 50.39 276.22 53.61 279.81 54.86 277.6 57.95 281.1 59.43 278.71 62.38 282.11 64.06 279.54 66.86 282.83 68.75 280.1 71.38 283.27 73.47 280.38 75.93 283.41 78.21"/></g></g></svg>